<?xml version="1.0" encoding="utf-8"?>
<!-- Generator: Adobe Illustrator 23.0.2, SVG Export Plug-In . SVG Version: 6.00 Build 0)  -->
<svg version="1.1" id="Layer_1" xmlns="http://www.w3.org/2000/svg" xmlns:xlink="http://www.w3.org/1999/xlink" x="0px" y="0px"
	 viewBox="0 0 1920 1080" style="enable-background:new 0 0 1920 1080;" xml:space="preserve">
<style type="text/css">
	.st0{fill:#666666;}
	.st1{fill:#FFD23E;}
	.st2{fill:#4272A4;}
</style>
<g>
	<g>
		<g>
			<g>
				<path class="st0" d="M952.68,522.22h-12.98v-1.25c0-3.29-2.81-6.1-6.1-6.1h-54.43c-3.29,0-6.1,2.82-6.1,6.1v13.92
					c0,3.29,2.81,6.1,6.1,6.1h54.43c10.64,0,19.08,8.45,19.08,18.93v13.92c0,10.48-8.45,18.93-19.08,18.93h-54.43
					c-10.48,0-18.93-8.45-18.93-18.93v-1.25h12.83v1.25c0,3.29,2.81,6.1,6.1,6.1h54.43c3.29,0,6.1-2.81,6.1-6.1v-13.92
					c0-3.28-2.81-6.1-6.1-6.1h-54.43c-10.48,0-18.93-8.45-18.93-18.93v-13.92c0-10.48,8.44-18.93,18.93-18.93h54.43
					c10.64,0,19.08,8.45,19.08,18.93V522.22z"/>
				<path class="st0" d="M1057.34,520.97v71.8h-12.83v-71.8c0-3.29-2.81-6.1-6.1-6.1h-54.43c-3.44,0-6.26,2.82-6.26,6.1v71.8H964.9
					v-90.73h73.52C1048.89,502.04,1057.34,510.49,1057.34,520.97z"/>
				<path class="st0" d="M1165.93,520.97v71.8h-73.52c-10.48,0-18.93-8.45-18.93-18.93v-32.85h79.46v-20.02c0-3.29-2.66-6.1-6.1-6.1
					h-73.36v-12.83h73.36C1157.48,502.04,1165.93,510.49,1165.93,520.97z M1152.94,553.82h-66.64v20.02c0,3.29,2.82,6.1,6.1,6.1
					h60.54V553.82z"/>
				<path class="st0" d="M1274.82,520.97v52.87c0,10.48-8.45,18.93-18.93,18.93h-60.69v35.98h-12.83v-126.7h73.52
					C1266.37,502.04,1274.82,510.49,1274.82,520.97z M1261.99,520.97c0-3.29-2.82-6.1-6.1-6.1h-54.43c-3.44,0-6.26,2.82-6.26,6.1
					v52.87c0,3.29,2.82,6.1,6.26,6.1h54.43c3.29,0,6.1-2.81,6.1-6.1V520.97z"/>
				<path class="st0" d="M1378.7,520.97v52.87c0,10.48-8.45,18.93-18.93,18.93h-60.69v35.98h-12.83v-126.7h73.52
					C1370.25,502.04,1378.7,510.49,1378.7,520.97z M1365.87,520.97c0-3.29-2.81-6.1-6.1-6.1h-54.43c-3.44,0-6.26,2.82-6.26,6.1
					v52.87c0,3.29,2.81,6.1,6.26,6.1h54.43c3.29,0,6.1-2.81,6.1-6.1V520.97z"/>
				<path class="st0" d="M1405,472.32v12.83h-12.83v-12.83H1405z M1392.17,502.04H1405v90.73h-12.83V502.04z"/>
			</g>
		</g>
	</g>
	
		<rect x="679.14" y="537.32" transform="matrix(0.7071 -0.7071 0.7071 0.7071 -192.896 666.2576)" class="st1" width="57.32" height="57.32"/>
	
		<rect x="599.76" y="537.32" transform="matrix(0.7071 -0.7071 0.7071 0.7071 -216.1451 610.1293)" class="st2" width="57.32" height="57.32"/>
	
		<rect x="679.14" y="457.94" transform="matrix(0.7071 -0.7071 0.7071 0.7071 -136.7678 643.0085)" class="st1" width="57.32" height="57.32"/>
	<path class="st1" d="M673.74,488.92h-58.25c-1.28,0-2.32-1.04-2.32-2.32c0-1.28,1.04-2.32,2.32-2.32h58.25
		c1.28,0,2.32,1.04,2.32,2.32C676.06,487.88,675.02,488.92,673.74,488.92z"/>
	<path class="st1" d="M605.2,488.92h-10.45c-1.28,0-2.32-1.04-2.32-2.32c0-1.28,1.04-2.32,2.32-2.32h10.45
		c1.28,0,2.32,1.04,2.32,2.32C607.52,487.88,606.49,488.92,605.2,488.92z"/>
	<path class="st1" d="M585.33,488.92h-7.35c-1.28,0-2.32-1.04-2.32-2.32c0-1.28,1.04-2.32,2.32-2.32h7.35
		c1.28,0,2.32,1.04,2.32,2.32C587.65,487.88,586.61,488.92,585.33,488.92z"/>
	<path class="st1" d="M568.53,488.92h-3.67c-1.28,0-2.32-1.04-2.32-2.32c0-1.28,1.04-2.32,2.32-2.32h3.67
		c1.28,0,2.32,1.04,2.32,2.32C570.85,487.88,569.82,488.92,568.53,488.92z"/>
	<path class="st1" d="M555.42,488.92h-0.68c-1.28,0-2.32-1.04-2.32-2.32c0-1.28,1.04-2.32,2.32-2.32h0.68
		c1.28,0,2.32,1.04,2.32,2.32C557.74,487.88,556.7,488.92,555.42,488.92z"/>
	<path class="st2" d="M588.53,568.29h-80.29c-1.28,0-2.32-1.04-2.32-2.32c0-1.28,1.04-2.32,2.32-2.32h80.29
		c1.28,0,2.32,1.04,2.32,2.32C590.85,567.26,589.82,568.29,588.53,568.29z"/>
	<path class="st2" d="M628.88,529.77h-67.69c-1.28,0-2.32-1.04-2.32-2.32c0-1.28,1.04-2.32,2.32-2.32h67.69
		c1.28,0,2.32,1.04,2.32,2.32C631.2,528.74,630.16,529.77,628.88,529.77z"/>
	<path class="st2" d="M552.92,529.77h-11.68c-1.28,0-2.32-1.04-2.32-2.32c0-1.28,1.04-2.32,2.32-2.32h11.68
		c1.28,0,2.32,1.04,2.32,2.32C555.24,528.74,554.2,529.77,552.92,529.77z"/>
	<path class="st2" d="M532,529.77h-7.06c-1.28,0-2.32-1.04-2.32-2.32c0-1.28,1.04-2.32,2.32-2.32H532c1.28,0,2.32,1.04,2.32,2.32
		C534.32,528.74,533.28,529.77,532,529.77z"/>
	<path class="st2" d="M513.08,529.77h-3.98c-1.28,0-2.32-1.04-2.32-2.32c0-1.28,1.04-2.32,2.32-2.32h3.98
		c1.28,0,2.32,1.04,2.32,2.32C515.4,528.74,514.36,529.77,513.08,529.77z"/>
	<path class="st2" d="M499.37,568.29h-6.43c-1.28,0-2.32-1.04-2.32-2.32c0-1.28,1.04-2.32,2.32-2.32h6.43
		c1.28,0,2.32,1.04,2.32,2.32C501.69,567.26,500.65,568.29,499.37,568.29z"/>
	
		<rect x="758.52" y="457.94" transform="matrix(0.7071 -0.7071 0.7071 0.7071 -113.5187 699.1367)" class="st2" width="57.32" height="57.32"/>
</g>
</svg>
